# xmcd CD database file
#
# Track frame offsets:
#	182
#	11462
#	23267
#	38272
#	48992
#	60872
#	73447
#	86192
#	97777
#	114220
#	126127
#	141157
#	156010
#	171245
#	184742
#	197257
#	210042
#	222760
#	237135
#	250007
#	263202
#	276732
#
# Disc length: 3860 seconds
#
# Revision: 0
# Processed by: cddbd v1.5.1PL0 Copyright (c) Steve Scherf et al.
# Submitted via: CDex 1.51
#
DISCID=1a0f1216
DTITLE=Django Reinhardt - Integrale Django Vol.13 disc2
DYEAR=1947
DGENRE=Jazz
TTITLE0=R Vingt-Six
TTITLE1=How High The Moon
TTITLE2=Lover Man
TTITLE3=Blue Lou
TTITLE4=Blues
TTITLE5=Minor Blues
TTITLE6=Clair De Lune
TTITLE7=Lancer Leger (Peche A La Mouche)
TTITLE8=Lentement, Medemoiselle
TTITLE9=Loves Melody (Melodie Au Crepescule)
TTITLE10=Porto Cabello
TTITLE11=Duke And Dukie (take1)
TTITLE12=Duke And Dukie (take2)
TTITLE13=Songe D'Automne
TTITLE14=Babik (Bi-Bop)(take1)
TTITLE15=Babik (Bi-Bop)(take1)
TTITLE16=Del Salle (take1)
TTITLE17=Del Salle (take1)
TTITLE18=Just One Of Those Things
TTITLE19=For Sentimental Reasons
TTITLE20=Danse Norvegienne
TTITLE21=Blues For Barclay (take2)
EXTD=YEAR: 1947
EXTT0=
EXTT1=
EXTT2=
EXTT3=
EXTT4=
EXTT5=
EXTT6=
EXTT7=
EXTT8=
EXTT9=
EXTT10=
EXTT11=
EXTT12=
EXTT13=
EXTT14=
EXTT15=
EXTT16=
EXTT17=
EXTT18=
EXTT19=
EXTT20=
EXTT21=
PLAYORDER=
